PathFileType	4	(X/Y/Z)	/Users/itak/Documents/Research/Walk-IL/dataset/trc/00256_00009.trc
DataRate	CameraRate	NumFrames	NumMarkers	Units	OrigDataRate	OrigDataStartFrame	OrigNumFrames
100.000000	100.000000	4	53	mm	100.000000	510	583
Frame#	Time	RPSI			LPSI			L3			STRN			T10			C7			CLAV			RBAK			LBAK			LSHO			LUPA			LAEL			LAOL			LWTS			LWPS			LFRA			LIFD			LHPS			LHTS			RSHO			RUPA			RAEL			RAOL			RWTS			RWPS			RFRA			RIFD			RHTS			RHPS			RBHD			LFHD			RFHD			LBHD			LHIP			RHIP			RASI			LASI			LKNE			LTHI			LANK			LTIP			LTOE			LMT1			LMT5			LHEE			RKNE			RTHI			RANK			RTIP			RTOE			RMT1			RMT5			RHEE			
		X1	Y1	Z1	X2	Y2	Z2	X3	Y3	Z3	X4	Y4	Z4	X5	Y5	Z5	X6	Y6	Z6	X7	Y7	Z7	X8	Y8	Z8	X9	Y9	Z9	X10	Y10	Z10	X11	Y11	Z11	X12	Y12	Z12	X13	Y13	Z13	X14	Y14	Z14	X15	Y15	Z15	X16	Y16	Z16	X17	Y17	Z17	X18	Y18	Z18	X19	Y19	Z19	X20	Y20	Z20	X21	Y21	Z21	X22	Y22	Z22	X23	Y23	Z23	X24	Y24	Z24	X25	Y25	Z25	X26	Y26	Z26	X27	Y27	Z27	X28	Y28	Z28	X29	Y29	Z29	X30	Y30	Z30	X31	Y31	Z31	X32	Y32	Z32	X33	Y33	Z33	X34	Y34	Z34	X35	Y35	Z35	X36	Y36	Z36	X37	Y37	Z37	X38	Y38	Z38	X39	Y39	Z39	X40	Y40	Z40	X41	Y41	Z41	X42	Y42	Z42	X43	Y43	Z43	X44	Y44	Z44	X45	Y45	Z45	X46	Y46	Z46	X47	Y47	Z47	X48	Y48	Z48	X49	Y49	Z49	X50	Y50	Z50	X51	Y51	Z51	X52	Y52	Z52	X53	Y53	Z53	

511	5.100000000000001	2.762779712677002	1046.693725585938	772.871826171875	122.8296966552734	1051.491821289062	776.2816162109375	82.70158386230469	1122.583984375	764.9874267578125	82.77865600585938	1326.821899414062	1004.463684082031	77.58978271484375	1248.89306640625	756.40576171875	85.53841400146484	1514.7978515625	798.1128540039062	82.37085723876953	1441.715698242188	969.7117309570312	14.57669162750244	1369.453491210938	735.0302124023438	195.0264129638672	1473.330200195312	779.2876586914062	250.9606170654297	1478.16162109375	867.52783203125	325.8795166015625	1356.48681640625	843.5186157226562	349.8651123046875	1147.534912109375	872.7945556640625	304.5421752929688	1128.0537109375	800.565185546875	289.9440612792969	914.6492309570312	965.537109375	371.2851257324219	899.5100708007812	946.1091918945312	362.9982604980469	1041.826782226562	899.447265625	284.5096435546875	729.4827270507812	963.59619140625	366.2934875488281	810.5335693359375	962.4147338867188	309.9612121582031	813.7742309570312	1001.388671875	-85.8135986328125	1480.486938476562	855.553955078125	-153.8495941162109	1416.246826171875	838.2811889648438	-192.5478820800781	1133.769409179688	825.7901000976562	-100.9781723022461	1125.834716796875	799.2498779296875	-160.3332977294922	922.2882080078125	969.185791015625	-222.4091949462891	907.7709350585938	913.1929321289062	-207.2291564941406	1066.603637695312	853.2340698242188	-158.5939636230469	726.9591674804688	987.1242065429688	-178.3834381103516	801.536865234375	1008.184326171875	-225.8333740234375	801.4720458984375	953.4850463867188	38.28755569458008	1672.277099609375	822.6510620117188	124.031379699707	1735.876831054688	1023.08056640625	24.2755184173584	1733.673461914062	1018.653503417969	169.2025451660156	1685.509033203125	872.690673828125	259.0418090820312	988.7730712890625	881.6217041015625	-107.2362213134766	1011.156799316406	868.4779663085938	-67.90132904052734	1054.05419921875	965.3650512695312	211.2518310546875	1033.831420898438	979.4409790039062	207.4058380126953	506.1968994140625	913.3494873046875	242.1258697509766	649.3409423828125	913.461181640625	185.369140625	35.65949630737305	839.4986572265625	207.4883270263672	283.7764587402344	868.8106689453125	131.5632781982422	44.05944442749023	1055.573608398438	87.67378234863281	40.72224426269531	987.7203979492188	203.9513397216797	35.07267761230469	966.3271484375	131.9178314208984	41.25871276855469	778.7732543945312	-65.40218353271484	518.2440185546875	897.6969604492188	-112.5824279785156	783.64208984375	927.4452514648438	-39.73565292358398	38.98813629150391	810.5913696289062	-45.62456130981445	399.5155944824219	899.6561889648438	11.74743366241455	43.15291595458984	1020.295471191406	52.83613586425781	38.92851257324219	961.3016357421875	-61.56885528564453	39.76568222045898	920.830078125	15.39978504180908	35.11798858642578	746.3195190429688	
512	5.11	3.532188892364502	1046.743408203125	772.938720703125	123.6147003173828	1051.495361328125	776.6016845703125	83.48162078857422	1122.635498046875	765.2499389648438	83.41350555419922	1326.708740234375	1004.862426757812	78.29965209960938	1248.961059570312	756.7811279296875	86.27743530273438	1514.837158203125	798.6632080078125	82.87655639648438	1441.63916015625	970.1804809570312	15.36580657958984	1369.514404296875	735.4386596679688	195.6963195800781	1473.3564453125	779.8818359375	251.6855163574219	1478.09326171875	868.1302490234375	326.5778503417969	1356.346069335938	843.5883178710938	350.1982421875	1147.238403320312	871.3984985351562	304.31787109375	1128.311645507812	799.3961791992188	291.6463928222656	912.9508056640625	961.9187622070312	372.9307861328125	898.5953979492188	941.7327270507812	363.7456970214844	1041.363647460938	896.8746948242188	286.9992980957031	727.2167358398438	957.9035034179688	368.5977478027344	809.3624877929688	956.57568359375	312.4146728515625	811.5309448242188	995.8232421875	-85.16338348388672	1480.56982421875	855.89501953125	-153.1780242919922	1416.324340820312	838.51513671875	-192.0102081298828	1133.833618164062	826.0924072265625	-100.3572845458984	1125.862915039062	799.6051025390625	-159.9946899414062	922.5188598632812	969.6640625	-221.9042816162109	907.9531860351562	913.6044311523438	-206.6669464111328	1066.71728515625	853.5301513671875	-158.4715270996094	727.321044921875	988.0189208984375	-178.1989898681641	801.8609008789062	1008.919738769531	-225.4984283447266	801.6023559570312	954.1099243164062	38.92947769165039	1672.182250976562	823.223876953125	124.5409393310547	1735.915649414062	1023.676025390625	24.88850402832031	1733.630126953125	1019.163146972656	169.8148956298828	1685.445556640625	873.339111328125	259.5788879394531	988.7136840820312	882.2234497070312	-106.5963287353516	1011.248901367188	868.2986450195312	-67.39435577392578	1054.104125976562	965.3195190429688	211.5792388916016	1033.717407226562	979.9521484375	207.6066284179688	506.1170043945312	913.8085327148438	242.3766479492188	649.26025390625	914.0673828125	185.3698577880859	35.65083312988281	839.4953002929688	207.6283874511719	283.70556640625	869.0579223632812	131.5517120361328	44.05531692504883	1055.571166992188	87.66021728515625	40.7155647277832	987.720947265625	203.9341888427734	35.07500076293945	966.3233032226562	131.9300231933594	41.26206588745117	778.771240234375	-65.10380554199219	518.2680053710938	897.5446166992188	-112.2954559326172	783.6622314453125	927.1828002929688	-39.73606491088867	38.97739410400391	810.5914916992188	-45.50405502319336	399.6028747558594	899.6087036132812	11.67541027069092	43.16117095947266	1020.218139648438	52.81496047973633	38.89960861206055	961.2828369140625	-61.54748916625977	39.77351379394531	920.804931640625	15.4011697769165	35.09284210205078	746.3067016601562	
513	5.12	4.311183929443359	1046.813354492188	772.9866943359375	124.4100952148438	1051.504028320312	776.9144897460938	84.2681884765625	1122.698120117188	765.506103515625	84.05213165283203	1326.598022460938	1005.253601074219	78.99521636962891	1249.03857421875	757.1435546875	86.99266815185547	1514.885375976562	799.2081909179688	83.39195251464844	1441.5693359375	970.6411743164062	16.12740898132324	1369.5888671875	735.8395385742188	196.3538513183594	1473.395629882812	780.4521484375	252.4076843261719	1478.042846679688	868.6996459960938	327.2696533203125	1356.248046875	843.5851440429688	350.5879516601562	1146.996948242188	869.9224243164062	304.1599426269531	1128.608276367188	798.1470947265625	293.261962890625	911.4889526367188	958.453857421875	374.4763793945312	897.817138671875	937.4965209960938	364.5011291503906	1040.982299804688	894.2997436523438	289.3388366699219	725.1945190429688	952.3789672851562	370.7391967773438	808.3738403320312	950.9484252929688	314.7191772460938	809.53125	990.4260864257812	-84.50411224365234	1480.6630859375	856.23046875	-152.5021209716797	1416.405517578125	838.7516479492188	-191.4630279541016	1133.89306640625	826.4052734375	-99.73795318603516	1125.89208984375	799.9588012695312	-159.5884857177734	922.74609375	970.186279296875	-221.3920745849609	908.1302490234375	914.0460815429688	-206.0962982177734	1066.816772460938	853.8302612304688	-158.2669677734375	727.6787719726562	988.9050903320312	-177.9244079589844	802.158447265625	1009.686340332031	-225.0712738037109	801.7310791015625	954.755126953125	39.54948425292969	1672.100830078125	823.803955078125	125.0822830200195	1735.951171875	1024.263305664062	25.50410842895508	1733.60791015625	1019.674499511719	170.40185546875	1685.392822265625	873.97802734375	260.2071838378906	988.6981811523438	882.7288818359375	-105.9827423095703	1011.346374511719	868.1226806640625	-66.91321563720703	1054.1591796875	965.276611328125	211.9284515380859	1033.607055664062	980.446044921875	207.8493041992188	506.0432739257812	914.2553100585938	242.6475372314453	649.1775512695312	914.64794921875	185.3710174560547	35.64073181152344	839.4912719726562	207.7725524902344	283.6372680664062	869.2910766601562	131.544189453125	44.05262756347656	1055.569702148438	87.65195465087891	40.71170043945312	987.7200317382812	203.9226379394531	35.07550430297852	966.319580078125	131.9434967041016	41.26221084594727	778.7677612304688	-64.80274200439453	518.2828979492188	897.408935546875	-111.9636611938477	783.6893310546875	926.957275390625	-39.7291259765625	38.98172760009766	810.5911865234375	-45.37595748901367	399.6829528808594	899.5593872070312	11.61240005493164	43.17913436889648	1020.158935546875	52.79243087768555	38.86483001708984	961.2671508789062	-61.52409362792969	39.77768325805664	920.7771606445312	15.41037368774414	35.07754898071289	746.2978515625	
514	5.13	5.102344036102295	1046.915283203125	773.0093383789062	125.2129898071289	1051.51904296875	777.2218017578125	85.05776214599609	1122.77099609375	765.7584228515625	84.68073272705078	1326.4951171875	1005.639526367188	79.677490234375	1249.125	757.49560546875	87.68199157714844	1514.942749023438	799.7471923828125	83.92954254150391	1441.5029296875	971.0946044921875	16.86194038391113	1369.67822265625	736.2341918945312	196.9972534179688	1473.446655273438	780.9989013671875	253.1216735839844	1478.011962890625	869.2357177734375	327.951171875	1356.194946289062	843.5120239257812	351.0408325195312	1146.81494140625	868.370849609375	304.0762023925781	1128.9453125	796.819580078125	294.7908325195312	910.2713623046875	955.1414794921875	375.9143676757812	897.165771484375	933.4173583984375	365.2664794921875	1040.67822265625	891.72998046875	291.5108032226562	723.4181518554688	947.0630493164062	372.705810546875	807.5547485351562	945.5650634765625	316.8578186035156	807.7772827148438	985.2376098632812	-83.83151245117188	1480.765258789062	856.5634155273438	-151.8317565917969	1416.48681640625	838.994140625	-190.9024658203125	1133.955932617188	826.7181396484375	-99.12447357177734	1125.924926757812	800.3059692382812	-159.1228179931641	922.9674072265625	970.7405395507812	-220.8669891357422	908.2964477539062	914.5147094726562	-205.5215454101562	1066.90869140625	854.1280517578125	-157.9675598144531	728.031494140625	989.7742919921875	-177.5714569091797	802.4298706054688	1010.464904785156	-224.5711822509766	801.8731079101562	955.3998413085938	40.14694213867188	1672.03564453125	824.3908081054688	125.6539993286133	1735.980834960938	1024.842407226562	26.11349105834961	1733.60986328125	1020.186279296875	170.9635314941406	1685.353637695312	874.606689453125	260.8849792480469	988.7000122070312	883.2007446289062	-105.4006500244141	1011.446411132812	867.9415893554688	-66.4625244140625	1054.216186523438	965.22802734375	212.2913665771484	1033.497314453125	980.921630859375	208.1297760009766	505.9744262695312	914.6749877929688	242.9320831298828	649.086181640625	915.190185546875	185.3738250732422	35.62831497192383	839.4857177734375	207.9210510253906	283.5698547363281	869.5044555664062	131.5415344238281	44.05207824707031	1055.567504882812	87.64881896972656	40.71115875244141	987.7169799804688	203.9175262451172	35.07425308227539	966.31640625	131.9594879150391	41.25920867919922	778.7614135742188	-64.50523376464844	518.2918701171875	897.2986450195312	-111.583854675293	783.7213134765625	926.7647094726562	-39.71391296386719	39.00300216674805	810.590087890625	-45.23838424682617	399.7548522949219	899.5068359375	11.55900382995605	43.20392608642578	1020.117248535156	52.77522659301758	38.83113479614258	961.2569580078125	-61.50033950805664	39.77681350708008	920.7471923828125	15.4282054901123	35.07321929931641	746.293701171875	
